<?xml version="1.0" standalone="no"?>
<!DOCTYPE svg PUBLIC "-//W3C//DTD SVG 20010904//EN"
 "http://www.w3.org/TR/2001/REC-SVG-20010904/DTD/svg10.dtd">
<svg version="1.0" xmlns="http://www.w3.org/2000/svg"
 width="298.000000pt" height="298.000000pt" viewBox="0 0 298.000000 298.000000"
 preserveAspectRatio="xMidYMid meet">
<metadata>
Created by potrace 1.14, written by Peter Selinger 2001-2017
</metadata>
<g transform="translate(0.000000,298.000000) scale(0.100000,-0.100000)"
fill="#000000" stroke="none">
<path d="M1260 2280 c-28 -53 -249 -583 -245 -590 5 -9 518 -1 526 8 3 4 23
53 44 110 21 56 39 101 40 100 2 -2 19 -46 40 -98 20 -52 40 -99 45 -104 5 -5
53 -8 107 -6 54 1 131 3 171 3 46 1 72 6 72 13 0 6 -12 38 -26 70 -15 33 -69
156 -121 274 -51 118 -98 219 -104 225 -6 6 -107 10 -275 11 -233 0 -266 -2
-274 -16z"/>
<path d="M2047 1683 c-4 -3 -882 -25 -1008 -25 l-47 0 -78 -172 c-43 -94 -79
-174 -81 -177 -1 -4 41 -5 95 -3 166 5 514 13 817 20 l290 6 -36 -38 c-54 -57
-262 -275 -367 -384 l-91 -95 -1 -147 0 -148 503 0 503 0 -2 143 c0 78 -2 144
-3 147 0 3 -114 5 -251 5 -138 0 -249 3 -248 6 3 6 242 256 398 417 95 97 106
115 104 163 -1 24 -3 99 -4 167 l-2 122 -245 -2 c-134 -2 -245 -4 -246 -5z"/>
<path d="M1358 1295 c-2 -2 -120 -7 -263 -10 -143 -4 -261 -8 -263 -10 -3 -3
-271 -630 -302 -706 l-18 -46 293 0 293 0 17 41 c9 22 70 183 135 356 65 173
123 327 129 342 7 20 7 28 -4 31 -7 3 -15 4 -17 2z"/>
</g>
</svg>
